<?xml version="1.0" encoding="UTF-8"?>
<svg version="1.1" xmlns="http://www.w3.org/2000/svg" width="512" height="512">
<path d="M0 0 C0.83484421 -0.01283524 1.66968842 -0.02567047 2.52983093 -0.03889465 C3.42982315 -0.04628159 4.32981537 -0.05366852 5.25708008 -0.0612793 C6.65389763 -0.07338692 6.65389763 -0.07338692 8.07893372 -0.08573914 C10.05178979 -0.09957169 12.02466971 -0.11029755 13.99755859 -0.11816406 C16.99794647 -0.13533401 19.99721992 -0.17922246 22.99731445 -0.22338867 C24.91722825 -0.23351991 26.8371514 -0.24203466 28.75708008 -0.2487793 C29.64695114 -0.26628738 30.5368222 -0.28379547 31.45365906 -0.30183411 C37.34485702 -0.28157194 41.96919603 0.721586 46.83911133 4.17700195 C51.83112263 10.44901615 52.29023135 15.45798735 51.83911133 23.17700195 C51.20590208 28.37040261 50.34094177 33.51910105 49.46757507 38.67605591 C49.20916599 40.23804633 48.9514633 41.80015375 48.69440204 43.36236656 C47.98917132 47.63535594 47.27389068 51.90660967 46.55688012 56.17763591 C45.78411584 60.79154923 45.02070439 65.40701109 44.256073 70.02227783 C42.75798469 79.05523121 41.25114876 88.08670416 39.74115261 97.11767377 C38.51405491 104.45766149 37.29012958 111.79817164 36.06846046 119.13906479 C35.89447888 120.18448666 35.72049729 121.22990852 35.54124353 122.30700984 C35.18780248 124.43085344 34.8343687 126.55469826 34.48094211 128.67854427 C31.16800178 148.58468865 27.84512993 168.48916532 24.51885144 188.39308463 C21.66546817 205.46869842 18.82059553 222.54571228 15.98193359 239.6237793 C12.68441363 259.46242052 9.38163152 279.30017382 6.07045299 299.13654029 C5.71736503 301.25188261 5.36428383 303.36722606 5.01120949 305.48257065 C4.83749268 306.52332876 4.66377587 307.56408686 4.48479491 308.63638309 C3.26141834 315.96801096 2.04180456 323.30025904 0.82364464 330.63275528 C-0.66094304 339.56833384 -2.15130981 348.50292547 -3.64908139 357.43630399 C-4.41300061 361.99354884 -5.17432663 366.5511863 -5.92862129 371.11003494 C-6.61940426 375.28456663 -7.31768404 379.45777264 -8.02192058 383.63005517 C-8.27513143 385.13816574 -8.52562136 386.64673624 -8.77308515 388.15580048 C-12.07957477 408.29387957 -12.07957477 408.29387957 -17.66088867 412.61450195 C-18.24870117 413.08758789 -18.83651367 413.56067383 -19.44213867 414.0480957 C-22.3600492 415.96463239 -24.92684548 416.30841604 -28.32177734 416.35400391 C-29.15662155 416.36683914 -29.99146576 416.37967438 -30.85160828 416.39289856 C-31.75160049 416.40028549 -32.65159271 416.40767242 -33.57885742 416.4152832 C-34.51006912 416.42335495 -35.44128082 416.4314267 -36.40071106 416.43974304 C-38.37356713 416.45357559 -40.34644706 416.46430146 -42.31933594 416.47216797 C-45.31972381 416.48933792 -48.31899726 416.53322637 -51.3190918 416.57739258 C-53.2390056 416.58752381 -55.15892874 416.59603857 -57.07885742 416.6027832 C-57.96872849 416.62029129 -58.85859955 416.63779938 -59.7754364 416.65583801 C-65.66663437 416.63557585 -70.29097337 415.6324179 -75.16088867 412.17700195 C-80.15289997 405.90498776 -80.61200869 400.89601655 -80.16088867 393.17700195 C-79.52767942 387.98360129 -78.66271912 382.83490285 -77.78935242 377.677948 C-77.53094334 376.11595757 -77.27324064 374.55385015 -77.01617938 372.99163735 C-76.31094867 368.71864797 -75.59566803 364.44739424 -74.87865746 360.176368 C-74.10589319 355.56245468 -73.34248174 350.94699282 -72.57785034 346.33172607 C-71.07976204 337.2987727 -69.5729261 328.26729975 -68.06292995 319.23633014 C-66.83583225 311.89634242 -65.61190692 304.55583227 -64.39023781 297.21493912 C-64.12926542 295.64680632 -64.12926542 295.64680632 -63.86302087 294.04699407 C-63.50957982 291.92315046 -63.15614604 289.79930565 -62.80271945 287.67545964 C-59.48977913 267.76931526 -56.16690727 247.86483859 -52.84062878 227.96091928 C-49.98724551 210.88530548 -47.14237288 193.80829162 -44.30371094 176.73022461 C-41.00619098 156.89158338 -37.70340886 137.05383009 -34.39223033 117.21746361 C-34.03914237 115.1021213 -33.68606118 112.98677785 -33.33298683 110.87143326 C-33.15927002 109.83067515 -32.98555321 108.78991704 -32.80657225 107.71762081 C-31.58319568 100.38599294 -30.3635819 93.05374487 -29.14542198 85.72124863 C-27.66083431 76.78567007 -26.17046754 67.85107844 -24.67269596 58.91769992 C-23.90877674 54.36045507 -23.14745071 49.80281761 -22.39315605 45.24396896 C-21.70237308 41.06943727 -21.0040933 36.89623126 -20.29985676 32.72394873 C-20.04664592 31.21583817 -19.79615599 29.70726766 -19.54869219 28.19820343 C-16.24220257 8.06012433 -16.24220257 8.06012433 -10.66088867 3.73950195 C-10.07307617 3.26641602 -9.48526367 2.79333008 -8.87963867 2.3059082 C-5.96172814 0.38937151 -3.39493186 0.04558787 0 0 Z " fill="#50A8FF" transform="translate(270.160888671875,47.822998046875)"/>
<path d="M0 0 C0.68191406 0.07347656 1.36382812 0.14695313 2.06640625 0.22265625 C8.32855065 2.11058446 12.93515358 5.974959 17.44921875 10.515625 C18.25248344 11.31102692 18.25248344 11.31102692 19.07197571 12.12249756 C20.19407515 13.23821789 21.31238086 14.35776567 22.42700195 15.48095703 C24.11905692 17.18152702 25.8289447 18.8625801 27.54101562 20.54296875 C39.18279921 32.1068316 39.18279921 32.1068316 40.96875 40.40625 C40.9584375 41.0765625 40.948125 41.746875 40.9375 42.4375 C40.95296875 43.44296875 40.95296875 43.44296875 40.96875 44.46875 C39.40934945 51.71537607 35.10165104 56.85096207 29.92480469 61.90429688 C29.28048492 62.54920074 28.63616516 63.19410461 27.97232056 63.85855103 C25.86068893 65.96741738 23.73529218 68.06179403 21.609375 70.15625 C20.13448213 71.62367499 18.66047553 73.09199124 17.18731689 74.56115723 C13.32291958 78.41034153 9.44665879 82.24735721 5.56774902 86.08190918 C1.60559665 90.00301561 -2.34514213 93.93558532 -6.296875 97.8671875 C-14.0409952 105.56851327 -21.79770494 113.25702384 -29.5625 120.9375 C-27.91016797 125.24537003 -24.64469879 128.09187889 -21.41625977 131.24731445 C-20.7868045 131.8706366 -20.15734924 132.49395874 -19.50881958 133.13616943 C-18.14301843 134.48767694 -16.77498873 135.8369352 -15.40500069 137.18419838 C-13.23525858 139.31912974 -11.07270707 141.46110286 -8.91209412 143.60527039 C-2.76841316 149.70007502 3.38626275 155.78368444 9.55004883 161.8581543 C13.32153826 165.57598296 17.0831516 169.30357162 20.83891487 173.03728294 C22.2700371 174.45601205 23.7049404 175.87093782 25.14370537 177.28191566 C27.1590236 179.2586613 29.16158766 181.24755395 31.16186523 183.23950195 C31.75573532 183.81584885 32.34960541 184.39219574 32.96147156 184.98600769 C37.55166432 189.59804245 40.86219819 194.60284094 40.875 201.375 C40.89433594 202.05433594 40.91367188 202.73367188 40.93359375 203.43359375 C39.08935967 212.7418933 32.33112612 218.63056288 25.83911133 225.00244141 C24.12729399 226.68524489 22.43498643 228.3859971 20.74414062 230.08984375 C19.64694259 231.18080423 18.54867023 232.27068553 17.44921875 233.359375 C16.95105148 233.86047791 16.45288422 234.36158081 15.93962097 234.87786865 C11.50185774 239.20006681 6.34868674 243.190926 0 243.875 C-0.67933594 243.96652344 -1.35867187 244.05804688 -2.05859375 244.15234375 C-11.44667454 243.3468142 -16.66325006 237.54415486 -22.95410156 231.16113281 C-23.97236163 230.14637833 -24.99169928 229.13270418 -26.01202393 228.12002563 C-28.76710301 225.37914112 -31.50635498 222.62293305 -34.24255085 219.86321354 C-37.11532379 216.97026339 -40.00115124 214.09038728 -42.88519287 211.2086792 C-47.72541807 206.36840051 -52.55571591 201.51839013 -57.37988281 196.66210938 C-62.9484075 191.05669529 -68.53085618 185.46546135 -74.12133813 179.88195157 C-79.51058567 174.49902075 -84.89123733 169.1075814 -90.2675705 163.71175385 C-92.550438 161.42073575 -94.83598977 159.13244671 -97.12372589 156.84629059 C-99.81973578 154.15116304 -102.50802697 151.44855822 -105.1906662 148.74012375 C-106.17328737 147.7503727 -107.15842087 146.76310823 -108.14630127 145.77860641 C-115.57730588 138.36816605 -121.09657758 132.55462521 -121.64453125 121.69921875 C-121.236693 107.96866443 -108.78973124 99.01646261 -99.76342773 89.94555664 C-98.81926162 88.99346077 -97.87526659 88.0411952 -96.931427 87.08877563 C-93.8732776 84.00478807 -90.81001997 80.92590309 -87.74609375 77.84765625 C-86.68354544 76.77973681 -85.62100033 75.71181419 -84.55845833 74.64388847 C-80.13985617 70.20373448 -75.71984833 65.76498773 -71.29612637 61.32993412 C-64.98828449 55.00581443 -58.6891358 48.67330684 -52.40159458 42.32900149 C-47.95829847 37.84697573 -43.5054306 33.37460344 -39.04537159 28.90925878 C-36.38973433 26.24997901 -33.73839474 23.58673018 -31.09725761 20.91304207 C-28.1559639 17.93600348 -25.19510621 14.9791888 -22.23217773 12.02368164 C-21.36805771 11.14315628 -20.50393768 10.26263092 -19.6136322 9.35542297 C-14.08508773 3.88336479 -8.35685317 -1.12587585 0 0 Z " fill="#63B6FF" transform="translate(133.5625,134.0625)"/>
<path d="M0 0 C0.72960937 0.05542969 1.45921875 0.11085937 2.2109375 0.16796875 C9.80550913 2.19564564 15.26434036 9.16288997 20.60595703 14.51879883 C21.6048611 15.51335067 22.60418064 16.50748537 23.60388184 17.50123596 C26.30683219 20.19084101 29.00338896 22.88676936 31.69840479 25.58432221 C33.95303919 27.84002921 36.21064964 30.0927461 38.46821105 32.34552306 C43.7957754 37.66200799 49.11801328 42.98378409 54.43701172 48.30883789 C59.91557034 53.79343769 65.40324525 59.2687929 70.89545929 64.7397154 C75.61950461 69.44612249 80.33769828 74.15834048 85.05130661 78.87520045 C87.86269421 81.68839727 90.67623892 84.49934541 93.49548721 87.30466652 C96.14685953 89.94342873 98.79082403 92.58939922 101.42938232 95.24097252 C102.85489602 96.6699646 104.28778524 98.09158736 105.72091675 99.51293945 C112.61738792 106.46598368 117.19863568 111.97905287 117.70703125 122.05078125 C117.299193 135.78133557 104.85223124 144.73353739 95.82592773 153.80444336 C94.88176162 154.75653923 93.93776659 155.7088048 92.993927 156.66122437 C89.9357776 159.74521193 86.87251997 162.82409691 83.80859375 165.90234375 C82.74604544 166.97026319 81.68350033 168.03818581 80.62095833 169.10611153 C76.20235617 173.54626552 71.78234833 177.98501227 67.35862637 182.42006588 C61.05078449 188.74418557 54.7516358 195.07669316 48.46409458 201.42099851 C44.02079847 205.90302427 39.5679306 210.37539656 35.10787159 214.84074122 C32.45223433 217.50002099 29.80089474 220.16326982 27.15975761 222.83695793 C24.2184639 225.81399652 21.25760621 228.7708112 18.29467773 231.72631836 C17.43055771 232.60684372 16.56643768 233.48736908 15.6761322 234.39457703 C10.34163789 239.6745677 5.86078104 243.36325202 -1.87890625 244.02734375 C-2.89791016 243.89005859 -2.89791016 243.89005859 -3.9375 243.75 C-4.61941406 243.67652344 -5.30132812 243.60304688 -6.00390625 243.52734375 C-12.26605065 241.63941554 -16.87265358 237.775041 -21.38671875 233.234375 C-21.92222855 232.70410706 -22.45773834 232.17383911 -23.00947571 231.62750244 C-24.13157515 230.51178211 -25.24988086 229.39223433 -26.36450195 228.26904297 C-28.05655692 226.56847298 -29.7664447 224.8874199 -31.47851562 223.20703125 C-43.12029921 211.6431684 -43.12029921 211.6431684 -44.90625 203.34375 C-44.8959375 202.6734375 -44.885625 202.003125 -44.875 201.3125 C-44.8853125 200.6421875 -44.895625 199.971875 -44.90625 199.28125 C-43.34684945 192.03462393 -39.03915104 186.89903793 -33.86230469 181.84570312 C-32.89582504 180.87834732 -32.89582504 180.87834732 -31.90982056 179.89144897 C-29.79818893 177.78258262 -27.67279218 175.68820597 -25.546875 173.59375 C-24.07198213 172.12632501 -22.59797553 170.65800876 -21.12481689 169.18884277 C-17.26041958 165.33965847 -13.38415879 161.50264279 -9.50524902 157.66809082 C-5.54309665 153.74698439 -1.59235787 149.81441468 2.359375 145.8828125 C10.1034952 138.18148673 17.86020494 130.49297616 25.625 122.8125 C23.97266797 118.50462997 20.70719879 115.65812111 17.47875977 112.50268555 C16.53457687 111.56770233 16.53457687 111.56770233 15.57131958 110.61383057 C14.20551843 109.26232306 12.83748873 107.9130648 11.46750069 106.56580162 C9.29775858 104.43087026 7.13520707 102.28889714 4.97459412 100.14472961 C-1.16908684 94.04992498 -7.32376275 87.96631556 -13.48754883 81.8918457 C-17.25903826 78.17401704 -21.0206516 74.44642838 -24.77641487 70.71271706 C-26.2075371 69.29398795 -27.6424404 67.87906218 -29.08120537 66.46808434 C-31.0965236 64.4913387 -33.09908766 62.50244605 -35.09936523 60.51049805 C-35.69323532 59.93415115 -36.28710541 59.35780426 -36.89897156 58.76399231 C-41.48916432 54.15195755 -44.79969819 49.14715906 -44.8125 42.375 C-44.83183594 41.69566406 -44.85117187 41.01632813 -44.87109375 40.31640625 C-43.02685967 31.0081067 -36.26862612 25.11943712 -29.77661133 18.74755859 C-28.06479399 17.06475511 -26.37248643 15.3640029 -24.68164062 13.66015625 C-23.58444259 12.56919577 -22.48617023 11.47931447 -21.38671875 10.390625 C-20.88855148 9.88952209 -20.39038422 9.38841919 -19.87712097 8.87213135 C-14.27526962 3.41615943 -8.07783042 -0.75109651 0 0 Z " fill="#3E99FF" transform="translate(382.375,134.1875)"/>
</svg>
